C:\GBW_MyPrograms\PredSimResults\Vitruvian_man\IG_v25ms_QR.mot
version=1
nRows=5
nColumns=35
inDegrees=yes
endheader
                time	         pelvis_tilt	           pelvis_tx	           pelvis_ty	       hip_flexion_r	        knee_angle_r	       ankle_angle_r	         mtp_angle_r	       hip_flexion_l	        knee_angle_l	       ankle_angle_l	         mtp_angle_l	    lumbar_extension	          arm_flex_r	          arm_flex_l	        elbow_flex_r	        elbow_flex_l	hamstrings_r/activation	bifemsh_r/activation	glut_max_r/activation	iliopsoas_r/activation	rect_fem_r/activation	  vasti_r/activation	gastroc_r/activation	 soleus_r/activation	tib_ant_r/activation	hamstrings_l/activation	bifemsh_l/activation	glut_max_l/activation	iliopsoas_l/activation	rect_fem_l/activation	  vasti_l/activation	gastroc_l/activation	 soleus_l/activation	tib_ant_l/activation	
          0.00000000	        -11.56894628	          0.00000000	          1.00758467	         28.27779907	        -16.80947051	          9.21910618	          2.64680553	         30.21344903	         -7.77354172	          1.89210413	          1.29944453	        -15.70875552	          1.45308755	          1.45308783	         60.02591169	         60.02591078	          0.36827474	          0.42916227	          0.11099760	          0.14418557	          0.14987765	          0.06363319	          0.06308668	          0.06176887	          0.84620055	          0.83362533	          0.54036528	          0.14982767	          0.22660035	          0.09040038	          0.05000000	          0.08941067	          0.07959848	          0.48806163	
          0.00739616	        -11.71982423	          0.01655979	          1.00052846	         29.26792896	        -17.04441890	          8.92063451	          2.50671270	         31.03871024	         -8.67487774	          2.29281633	          1.28781869	        -15.93378011	          1.72359703	          1.72359730	         58.86620054	         58.86619968	          0.32785970	          0.38206534	          0.33704364	          0.12836243	          0.13342984	          0.18994672	          0.05616345	          0.05499026	          0.89699164	          0.81289865	          0.48106476	          0.13338535	          0.20173288	          0.08047970	          0.05000000	          0.07959861	          0.07086334	          0.47493824	
          0.01479232	        -11.81891455	          0.03365073	          0.99291655	         30.33394073	        -18.57090163	          7.69941315	          2.31650332	         31.96040713	        -10.53158244	          2.25382950	          1.20703273	        -16.02100789	          2.20001431	          2.20001458	         58.00063194	         58.00063113	          0.39234838	          0.34013690	          0.55597987	          0.11427573	          0.11878705	          0.24865575	          0.05000000	          0.05000000	          0.93100936	          0.74417559	          0.42827197	          0.12584303	          0.17959440	          0.07164773	          0.05000000	          0.07086333	          0.06308669	          0.64833584	
          0.02218848	        -11.86028853	          0.05137685	          0.98484079	         31.32814869	        -21.32107195	          6.91907987	          2.03593864	         32.97796306	        -13.49968418	          2.02567199	          1.17694237	        -15.96692308	          2.88006132	          2.88006157	         57.42733550	         57.42733473	          0.34929146	          0.30280975	          0.70261410	          0.10173494	          0.10575117	          0.49678140	          0.05000000	          0.05000000	          0.82883895	          0.66250860	          0.38127274	          0.17475908	          0.15988543	          0.06378500	          0.05616347	          0.06308668	          0.05616346	          0.62146239	
          0.02958464	        -11.84964953	          0.06978923	          0.97653957	         31.96212194	        -24.36723080	          7.15076796	          1.63660228	         34.06498408	        -17.36727470	          2.08742119	          0.96011708	        -15.77432388	          3.75449671	          3.75449695	         57.14536832	         57.14536760	          0.31095969	          0.26957894	          0.80082351	          0.09057039	          0.09414588	          0.66296547	          0.30945646	          0.13244613	          0.73788088	          0.58980388	          0.33943128	          0.44728854	          0.14233936	          0.05678514	          0.05000000	          0.05616345	          0.05000000	          0.74647152	
